PathFileType	4	(X/Y/Z)	C:\Users\Basilio\Documents\Thesis Gigler\squatting_fais\c3dfiles\047\SJ_pre5\markers_experimental.trc
DataRate	CameraRate	NumFrames	NumMarkers	Units	OrigDataRate	OrigDataStartFrame	OrigNumFrames
200.000000	200.000000	4	61	mm	200.000000	348	1393
Frame#	Time	FHD			LBHD			RBHD			C7			T10			CLAV			LSHO			LUUPA			LMUPA			LDUPA			LLEP			LMEP			LRAD			LUL			LRFIN			RSHO			RUPA1			RMUPA			RDUPA			RLEP			RMEP			RRAD			RUL			RUFIN			LASI			RASI			USACR			LSACR			RSACR			LTHI1			LTHI2			LTHI3			LTHI4			LLFC			LMFC			LTIB1			LTIB2			LTIB3			LTIB4			LLMAL			LMMAL			LMT1			LMT2			LMT5			RTHI			RTHI2			RTHI3			RTHI4			RLFC			RMFC			RTIB1			RTIB2			RTIB3			RTIB4			RLMAL			RMMAL			RHEE			RMT1			RMT2			RMT5			*60			
		X1	Y1	Z1	X2	Y2	Z2	X3	Y3	Z3	X4	Y4	Z4	X5	Y5	Z5	X6	Y6	Z6	X7	Y7	Z7	X8	Y8	Z8	X9	Y9	Z9	X10	Y10	Z10	X11	Y11	Z11	X12	Y12	Z12	X13	Y13	Z13	X14	Y14	Z14	X15	Y15	Z15	X16	Y16	Z16	X17	Y17	Z17	X18	Y18	Z18	X19	Y19	Z19	X20	Y20	Z20	X21	Y21	Z21	X22	Y22	Z22	X23	Y23	Z23	X24	Y24	Z24	X25	Y25	Z25	X26	Y26	Z26	X27	Y27	Z27	X28	Y28	Z28	X29	Y29	Z29	X30	Y30	Z30	X31	Y31	Z31	X32	Y32	Z32	X33	Y33	Z33	X34	Y34	Z34	X35	Y35	Z35	X36	Y36	Z36	X37	Y37	Z37	X38	Y38	Z38	X39	Y39	Z39	X40	Y40	Z40	X41	Y41	Z41	X42	Y42	Z42	X43	Y43	Z43	X44	Y44	Z44	X45	Y45	Z45	X46	Y46	Z46	X47	Y47	Z47	X48	Y48	Z48	X49	Y49	Z49	X50	Y50	Z50	X51	Y51	Z51	X52	Y52	Z52	X53	Y53	Z53	X54	Y54	Z54	X55	Y55	Z55	X56	Y56	Z56	X57	Y57	Z57	X58	Y58	Z58	X59	Y59	Z59	X60	Y60	Z60	X61	Y61	Z61	

349	1.74	218.5501403808594	1057.670532226563	-871.5816040039065	79.6935272216797	1139.657592773438	-956.9290161132815	58.435848236084	1154.445190429688	-809.5689697265627	-77.78757476806642	1052.442016601563	-894.0659790039065	-326.3884277343751	862.125427246094	-897.2846679687502	-10.97991943359375	898.449645996094	-882.8300781250002	-31.02138137817384	970.746765136719	-1057.1005859375	-178.0221405029297	1003.624572753906	-1170.086791992188	-176.2467956542969	961.4938964843752	-1199.294189453125	-227.4612579345704	987.2015380859377	-1218.5673828125	-274.6126403808594	945.1892089843752	-1262.550170898438	-333.2313537597657	962.0262451171877	-1184.557861328125	-336.8561096191407	755.6243896484376	-1099.716674804688	-329.1385803222657	708.7976684570314	-1161.160400390625	-291.0742797851563	712.2608032226564	-1066.524536132813	-49.41952896118165	995.3262939453127	-728.2489013671876	-225.5653991699219	1035.561279296875	-635.2123413085939	-232.269027709961	995.5957641601565	-606.0685424804689	-284.8917541503907	1022.932006835938	-598.4938964843751	-340.2658081054688	982.348815917969	-564.1157836914064	-387.7853393554689	990.2125244140627	-644.4256591796876	-326.3038024902344	769.2303466796877	-699.2014160156251	-338.8428955078126	732.9859619140626	-632.2293701171876	-290.4834289550782	713.1276245117189	-722.0197753906251	-383.9355468750001	603.8612670898439	-1005.614135742188	-387.4413452148439	609.5135498046876	-772.5064697265627	-453.977752685547	789.858581542969	-903.774597167969	-482.3747558593751	776.6751708984377	-932.6558227539065	-485.0823059082032	775.937438964844	-874.8427734375002	-457.6880798339845	610.9797363281251	-1121.554443359375	-377.2252807617188	602.2715454101564	-1144.962890625	-349.5597229003907	632.1765136718751	-1118.44775390625	-352.1755065917969	554.5136718750001	-1171.626586914063	-223.5528869628907	447.048797607422	-1203.06982421875	-163.426742553711	438.2286682128907	-1090.955444335938	-212.8561706542969	276.4998779296876	-1112.255981445313	-254.2187805175782	235.9300537109376	-1178.609985351563	-230.4580535888672	230.491683959961	-1139.4326171875	-272.3130798339844	167.1119384765625	-1101.277221679688	-361.7108764648438	93.07989501953126	-1135.25390625	-325.3570556640626	105.4412689208985	-1051.37451171875	-208.1536102294922	64.68707275390626	-1101.422729492188	-217.7398376464844	64.1155242919922	-1144.598266601563	-267.7382507324219	43.64963531494141	-1181.9228515625	-446.099578857422	582.4710083007814	-655.4993286132814	-383.6822509765626	581.1143188476564	-632.5532226562501	-362.7795104980469	606.1646118164064	-639.0514526367189	-339.8357543945313	514.4010009765626	-608.2038574218751	-217.2153625488282	436.0704345703126	-590.6212158203126	-156.6163787841797	444.704071044922	-707.4405517578126	-186.5723419189453	313.3259277343751	-621.1741333007814	-282.1750793457032	256.8036804199219	-615.7789306640626	-238.6660766601563	243.0509185791016	-623.2141723632814	-240.7245330810547	203.2784881591797	-667.9002685546876	-357.5607299804688	87.41441345214845	-681.6954345703126	-312.5516967773438	107.4227981567383	-761.5606689453126	-405.954803466797	52.25838851928712	-750.9637451171876	-196.4958801269532	54.87663650512697	-714.7441406250001	-205.8075408935547	57.41278076171876	-671.0222167968751	-263.0801086425782	29.41063117980958	-624.8960571289064	nan	nan	nan	
350	1.745	218.5186462402344	1057.033325195313	-871.9766235351565	79.10196685791017	1138.507446289063	-957.421325683594	58.21325302124025	1153.5087890625	-810.0869750976565	-77.68173217773439	1050.785522460938	-894.4680786132815	-325.6076354980469	860.7248535156252	-897.531921386719	-10.70217704772949	896.806091308594	-883.1824951171877	-30.89558982849122	969.5489501953127	-1057.406982421875	-177.7776641845703	1001.633972167969	-1170.63671875	-175.9016571044922	960.0086669921877	-1199.637084960938	-227.1156463623047	985.4756469726565	-1218.97265625	-274.3687438964844	943.596618652344	-1262.938720703125	-333.2037658691407	960.4606933593752	-1185.000366210938	-336.4660339355469	754.1517944335939	-1100.154541015625	-328.6301879882813	707.2517700195314	-1161.576904296875	-290.7084045410157	710.6727294921876	-1066.866821289063	-49.43091201782228	993.710876464844	-728.4711303710939	-225.4540710449219	1034.250366210938	-635.7049560546876	-232.6405944824219	994.5775146484377	-606.3421630859376	-285.0350036621094	1021.729370117188	-598.8980102539064	-340.3144836425782	980.9302978515627	-564.5512695312501	-389.2337646484376	989.1130371093752	-644.8493652343751	-326.1747436523438	767.9458618164064	-699.4658203125001	-338.7196960449219	731.7006835937501	-632.3068847656251	-290.0648803710938	711.6898193359376	-722.7042846679689	-384.447967529297	602.6267700195314	-1006.672668457031	-387.2344970703126	607.5723876953126	-773.5552978515627	-453.7043762207032	788.4802856445315	-903.9368896484377	-482.349578857422	775.3836059570315	-932.8970947265627	-484.7732543945314	774.5316162109377	-875.1687011718752	-457.2421264648439	609.9154663085939	-1121.702514648438	-376.7603149414063	601.3111572265626	-1145.022094726563	-349.2480163574219	631.2937622070314	-1118.421997070313	-351.4382324218751	553.5217895507814	-1171.813354492188	-222.6223297119141	446.7438049316407	-1203.149291992188	-162.6963806152344	437.7471008300782	-1091.124145507813	-212.4212646484376	275.8752441406251	-1111.888061523438	-253.8969726562501	235.6899719238282	-1178.64697265625	-230.4678344726563	229.878158569336	-1138.804931640625	-271.9592285156251	166.7984619140625	-1101.119140625	-361.6119079589844	93.07913208007814	-1135.237182617188	-325.2698974609376	105.4112091064453	-1051.337524414063	-208.1761932373047	64.63986968994142	-1101.403564453125	-217.5824584960938	64.15679168701173	-1144.648681640625	-267.7791137695313	43.64518356323243	-1181.927368164063	-445.8796691894532	581.5696411132814	-655.6174926757814	-383.5046081542969	580.3045654296876	-632.7448120117189	-362.4663391113282	605.3789062500001	-639.3711547851564	-339.4979553222657	513.7907104492189	-608.4925537109376	-216.7450714111329	435.8789672851564	-590.5900268554689	-156.2403259277344	444.2933044433595	-707.5670776367189	-186.333480834961	313.0143737792969	-621.6336059570314	-281.7528076171876	256.7193908691407	-615.8527221679689	-238.4572448730469	242.8419799804688	-623.2689819335939	-240.5406188964844	203.1673126220704	-667.9628906250001	-357.5011596679688	87.44297027587892	-681.5396728515626	-312.4456176757813	107.350570678711	-761.6176147460939	-405.9214172363282	52.23538970947267	-750.9604492187501	-196.5210571289063	54.90639114379884	-714.7290649414064	-205.7965698242188	57.41826248168947	-671.1166381835939	-263.0796508789063	29.42828178405762	-624.9136352539064	nan	nan	nan	
351	1.75	218.5762023925782	1056.231811523438	-872.7617187500002	79.02143859863283	1137.463012695313	-957.8491821289065	57.81423568725587	1152.305541992188	-810.3391113281252	-77.80496978759767	1049.52587890625	-894.8123168945315	-326.2358093261719	859.241149902344	-897.8733520507815	-10.2948751449585	895.8345947265627	-883.746032714844	-30.06492614746094	967.8015136718752	-1057.847778320313	-177.8040771484375	1000.399291992188	-1170.90576171875	-175.6632690429688	958.1672973632815	-1200.136352539063	-226.9168395996094	983.7182617187502	-1219.465454101563	-273.9887390136719	941.8472900390627	-1263.262939453125	-332.9589233398438	958.7442016601565	-1185.36181640625	-336.1900634765626	752.4332275390626	-1100.54345703125	-328.2928466796876	705.6423950195314	-1162.003784179688	-290.4442138671876	709.0126342773439	-1067.099853515625	-49.43803787231447	992.8198852539065	-728.6483154296876	-225.8891754150391	1032.998413085938	-636.0829467773439	-232.4511108398438	993.3630981445315	-607.1680908203126	-285.1129455566407	1020.478881835938	-599.4031982421876	-340.5732116699219	979.9288330078127	-564.8192749023439	-388.169891357422	987.619323730469	-645.6383056640626	-325.7117614746094	766.5950317382814	-699.8228759765626	-338.2717590332032	730.3616943359376	-632.6503906250001	-289.7971496582032	710.4490356445314	-723.1581420898439	-380.6391906738282	603.3987426757814	-1007.250915527344	-383.8587036132813	607.6251220703126	-774.1411743164065	-454.0447692871095	787.3860473632815	-904.0725097656252	-482.0612182617189	773.9343872070315	-933.1795043945315	-484.5224609375001	772.890075683594	-875.3885498046877	-456.8553466796876	608.8691406250001	-1121.879150390625	-376.4295654296876	600.3720092773439	-1145.138793945313	-348.8370056152344	630.2787475585939	-1118.434204101563	-350.9556579589844	552.7255249023439	-1171.92333984375	-221.8384552001954	446.4688110351564	-1203.3671875	-161.596908569336	437.3646240234376	-1091.090454101563	-211.6956329345704	275.4441833496094	-1112.420043945313	-253.5335693359376	235.4616394042969	-1178.583862304688	-230.1198883056641	229.7653198242188	-1138.918579101563	-271.7970581054688	166.5794525146485	-1101.027587890625	-361.5649414062501	93.09846496582033	-1135.158935546875	-325.1935424804688	105.3417663574219	-1051.242431640625	-208.1741943359376	64.61417388916017	-1101.364013671875	-217.5102996826172	64.09291839599611	-1144.667114257813	-267.7973632812501	43.66923904418946	-1181.912353515625	-445.3299560546876	580.2172241210939	-656.4295043945314	-383.3234558105469	579.3757324218751	-633.0686645507814	-362.3899230957032	604.4044189453126	-639.6256103515626	-339.2138366699219	513.1607055664064	-608.6815185546876	-215.9851379394532	435.5565490722657	-590.6920776367189	-155.5606079101563	444.0291442871095	-707.6864624023439	-185.6983795166016	312.7344665527344	-622.0047607421876	-281.6293945312501	256.6670532226563	-615.6277465820314	-238.247299194336	242.732650756836	-623.3681030273439	-240.2826843261719	202.951400756836	-667.7358398437501	-357.4485473632813	87.47157287597658	-681.7119140625001	-312.4009399414063	107.2687606811524	-761.6215209960939	-405.9214172363282	52.25063323974611	-751.0196533203126	-196.5504760742188	54.93521881103517	-714.7296752929689	-205.7940521240235	57.384334564209	-671.1308593750001	-263.0882568359376	29.41122436523438	-624.9060058593751	nan	nan	nan	
352	1.755	218.3156127929688	1055.50634765625	-873.1065673828127	78.67163848876955	1136.398071289063	-958.2136230468752	57.67856597900392	1151.375122070313	-811.1694946289065	-77.92711639404298	1048.3525390625	-895.0635375976565	-326.0115356445313	857.5747680664065	-898.136413574219	-10.32127475738526	894.5465087890627	-883.8372802734377	-30.65634727478028	966.6831054687502	-1058.005004882813	-177.5576629638672	998.8686523437502	-1171.278198242188	-175.4686584472657	956.7025146484377	-1200.445678710938	-226.8506927490235	982.2303466796877	-1219.77197265625	-273.7346801757813	940.2243652343752	-1263.669677734375	-332.5533752441407	957.5289306640627	-1185.787353515625	-336.0484619140626	750.8594360351564	-1100.767578125	-327.9802856445313	703.8511962890626	-1162.30908203125	-290.0477600097657	707.6390380859376	-1067.331420898438	-49.55521392822267	991.3045654296877	-728.8109130859376	-225.8517150878907	1031.793701171875	-636.6499633789064	-232.8608856201172	992.262145996094	-607.3081054687501	-285.2973022460938	1019.474548339844	-599.9982910156251	-340.5889282226563	978.6074829101565	-565.3333129882814	-388.2414855957032	986.397644042969	-645.9652099609376	-325.6198120117188	765.5342407226564	-700.1892700195314	-337.9249877929688	729.2903442382814	-632.9613037109376	-289.6301574707032	709.2014160156251	-723.0235595703126	-383.5055847167969	600.5147094726564	-1008.238891601563	-385.4920349121095	604.6007080078126	-775.1297607421877	-453.4678039550782	785.5491333007815	-904.5681762695315	-481.9126892089845	772.516540527344	-933.4387817382815	-484.1109924316407	771.4659423828127	-875.8108520507815	-455.8265075683595	607.1547241210939	-1122.119384765625	-375.9143981933594	599.3948364257814	-1145.242431640625	-348.4401855468751	629.2310791015626	-1118.536010742188	-350.4620971679688	551.8344726562501	-1172.01416015625	-221.0823669433594	445.9798889160157	-1203.484375	-161.1802673339844	436.7823181152345	-1091.0390625	-211.2121124267579	274.9571228027344	-1112.356079101563	-253.1096649169922	235.1155090332032	-1178.54248046875	-229.5044555664063	229.5906372070313	-1139.038330078125	-271.6357421875001	166.4867401123047	-1100.752563476563	-361.4879150390626	93.11888885498048	-1135.147094726563	-325.1498718261719	105.3221664428711	-1051.266479492188	-208.0451202392579	64.71287536621095	-1101.43798828125	-217.5562286376954	64.09896850585939	-1144.644165039063	-267.7661437988282	43.64831924438477	-1181.919799804688	-445.1641540527345	579.4094238281251	-656.8004760742189	-382.9163818359376	578.6235961914064	-633.5294189453126	-362.0837402343751	603.6987304687501	-639.9604492187501	-338.6456909179688	512.3037109375001	-608.4752197265626	-215.3737335205079	435.1222534179689	-590.9420166015626	-152.9100189208985	444.9268798828126	-708.3537597656251	-185.3276977539063	312.6777648925782	-622.0928344726564	-281.4450073242188	256.6064758300782	-615.7727050781251	-237.9670867919922	242.6842041015626	-623.5303344726564	-240.1730041503907	202.9059295654297	-667.9118041992189	-357.3785705566407	87.45532989501955	-681.7940673828126	-312.2609863281251	107.2335815429688	-761.6625366210939	-405.8988647460939	52.22159576416017	-751.0291748046876	-196.4004364013672	54.64355468750001	-714.8391723632814	-205.8201751708985	57.40186691284181	-671.0466918945314	-263.1148071289063	29.33073234558106	-624.9376220703126	nan	nan	nan	
